# xmcd CD database file
#
# Track frame offsets:
#	150
#	22632
#	48398
#	72158
#	117945
#	137565
#	158976
#	176746
#	197581
#	221390
#	242217
#	266607
#	284229
#	306903
#	324938
#
# Disc length: 4699 seconds
#
# Revision: 0
# Processed by: cddbd v1.5.1PL0 Copyright (c) Steve Scherf et al.
# Submitted via: CDex 1.51
#
DISCID=d912590f
DTITLE=Merengue, Bachata y Salsa 2005 Dom Rep - Merengue, Bachata y Salsa 2005 Dom Rep
DYEAR=2005
DGENRE=Merengue
TTITLE0=SA SA SA MESA QUE MAS APALAUDA
TTITLE1=AY AY AY - ANT.SANTOS
TTITLE2=MI PRIMAVERA - MICHELLE
TTITLE3=JUAN MECHO - AGUAKATE Y ANT.SANTOS
TTITLE4=STOY PERDIDO - EL CHAVAL
TTITLE5=VALIO LA PENA - MARC ANTONY
TTITLE6=LA QUERIDA - KRISSPY Y JULIAN
TTITLE7=PERDIDO - MONCHY Y ALEXANDRA
TTITLE8=SUEÑO PROHIBIDO - MIDLEY PEÑA
TTITLE9=TRIGO FUEGO - PEÑA SUAZO
TTITLE10=HAY AMOR - ANT.SANTOS
TTITLE11=EL SOLTERO SOLICITADO - ERIC
TTITLE12=LA CABAÑA - ORO DURO
TTITLE13=TONTO CORAZON - JOE VERAS
TTITLE14=COMO TU NO HABRA NADIE - GABINO
EXTD=YEAR: 2005
EXTT0=
EXTT1=
EXTT2=
EXTT3=
EXTT4=
EXTT5=
EXTT6=
EXTT7=
EXTT8=
EXTT9=
EXTT10=
EXTT11=
EXTT12=
EXTT13=
EXTT14=
PLAYORDER=
